<svg width="50" height="42" viewBox="0 0 50 42" fill="none" xmlns="http://www.w3.org/2000/svg">
<g clip-path="url(#clip0_807_3)">
<path d="M36.7206 4.43604C37.9453 4.43604 38.9385 3.44299 38.9385 2.21801C38.9385 0.99304 37.9453 0 36.7206 0C35.4956 0 34.5024 0.99304 34.5024 2.21801C34.5024 3.44299 35.4956 4.43604 36.7206 4.43604Z" fill="#5E81AC"/>
<path fill-rule="evenodd" clip-rule="evenodd" d="M31.6982 4.35756C31.6254 4.49174 31.5146 4.60069 31.3832 4.67847C30.749 5.0539 30.0882 5.52852 29.4059 6.1149C31.5442 10.054 31.4608 16.1431 29.1312 22.4483C29.3297 22.3339 29.5305 22.2214 29.7335 22.1108C37.5799 17.8424 45.9967 18.1622 48.5335 22.8251C51.07 27.488 46.7659 34.7281 38.9197 38.9967C33.9584 41.6956 28.7692 42.56 24.9825 41.6522C24.7304 41.5974 24.4803 41.5299 24.2326 41.4495C24.0725 41.3974 23.9148 41.3403 23.7595 41.2784C22.4306 40.7756 21.337 40.0106 20.5718 38.9872C20.022 38.3648 19.5318 37.6524 19.1041 36.8626C14.1169 40.959 8.64234 42.4304 4.69132 40.1492C-1.43809 36.6103 -1.57969 25.3805 4.37506 15.0666C10.3298 4.75267 20.126 -0.739631 26.2553 2.79919C26.8065 3.11742 27.3093 3.49782 27.7636 3.93418C29.0699 2.76733 30.3755 1.77581 31.5888 1.00921C32.191 0.62883 32.8983 1.17603 32.6992 1.85975C32.4108 2.84926 32.1143 3.59084 31.6982 4.35756ZM24.5302 5.78719C24.7948 5.9399 25.052 6.12915 25.2974 6.35654C22.4966 9.37575 19.9746 13.094 18.7114 16.9799C16.7555 22.9972 16.5363 28.9097 17.7699 33.4586C16.5244 34.5831 15.2537 35.5032 14.0097 36.2006C10.6035 38.1105 8.00503 38.0783 6.41645 37.161C4.82787 36.244 3.50084 34.0096 3.45159 30.105C3.40346 26.2864 4.6417 21.5052 7.36305 16.7917C10.0844 12.0782 13.6059 8.61524 16.937 6.74762C20.3431 4.83796 22.9417 4.87002 24.5302 5.78719ZM21.9927 18.0466C20.5244 22.5633 20.1716 26.8958 20.6641 30.4016C20.9106 30.0994 21.1543 29.7889 21.3945 29.47C21.6562 29.0702 21.9417 28.6723 22.25 28.2778C22.7116 27.6023 23.1574 26.8948 23.5836 26.1567C26.305 21.4432 27.5432 16.662 27.4951 12.8433C27.4746 11.2148 27.2317 9.87687 26.8404 8.80382C24.9124 11.2202 23.189 14.3662 21.9927 18.0466ZM23.2569 36.8082C23.8514 37.4464 24.4935 37.8714 25.1371 38.1116C25.7926 38.341 26.6221 38.5017 27.6596 38.5412C30.3419 38.6428 33.7977 37.8554 37.2708 35.966C40.7442 34.0763 43.2827 31.6028 44.6544 29.2956C46.0698 26.9146 45.9564 25.3081 45.5028 24.4739C45.0489 23.6397 43.7618 22.6716 40.9937 22.5665C38.3116 22.4645 34.8558 23.2521 31.3824 25.1416C28.6474 26.6295 26.4919 28.4794 25.0294 30.3251C24.7666 30.707 24.4985 31.0803 24.2257 31.4451C24.1469 31.5678 24.0712 31.6901 23.9988 31.8116C22.5833 34.1928 22.6967 35.7994 23.1506 36.6335C23.182 36.6912 23.2173 36.7497 23.2569 36.8082Z" fill="#5E81AC"/>
</g>
<defs>
<clipPath id="clip0_807_3">
<rect width="49.28" height="42" fill="white"/>
</clipPath>
</defs>
</svg>
